# Blender v2.79 (sub 0) OBJ File: ''
# www.blender.org
mtllib cube.mtl
o Cube
v 1.000000 -1.000000 -1.000000
v 1.000000 -1.000000 1.000000
v -1.000000 -1.000000 1.000000
v -1.000000 -1.000000 -1.000000
v 1.000000 1.000000 -0.999999
v 0.999999 1.000000 1.000001
v -1.000000 1.000000 1.000000
v -1.000000 1.000000 -1.000000
v 0.915138 -1.000000 -0.915138
v 0.915138 -1.000000 0.915138
v -0.915139 -1.000000 0.915138
v -0.915138 -1.000000 -0.915139
v 0.915139 1.000000 -0.915138
v -0.915138 1.000000 -0.915138
v -0.915139 1.000000 0.915138
v 0.915138 1.000000 0.915139
v 1.000000 -0.915138 -0.915138
v 1.000000 0.915138 -0.915138
v 0.999999 0.915138 0.915139
v 1.000000 -0.915138 0.915138
v 0.915138 -0.915138 1.000000
v 0.915138 0.915138 1.000001
v -0.915139 0.915138 1.000000
v -0.915139 -0.915138 1.000000
v -1.000000 -0.915138 0.915138
v -1.000000 0.915138 0.915138
v -1.000000 0.915138 -0.915138
v -1.000000 -0.915138 -0.915139
v 0.915139 0.915138 -1.000000
v 0.915138 -0.915138 -1.000000
v -0.915138 -0.915138 -1.000000
v -0.915138 0.915138 -1.000000
vt 0.000000 0.666667
vt 0.333333 0.666667
vt 0.319190 0.680810
vt 0.014144 0.680810
vt 0.333333 1.000000
vt 0.319190 0.985856
vt 0.000000 1.000000
vt 0.014144 0.985856
vt 0.333333 0.333333
vt 0.333333 0.666667
vt 0.319190 0.652523
vt 0.319190 0.347477
vt 0.000000 0.666667
vt 0.014144 0.652523
vt 0.000000 0.333333
vt 0.014144 0.347477
vt 0.666667 0.333333
vt 0.347477 0.319190
vt 0.652523 0.319190
vt 0.333333 0.000000
vt 0.347477 0.014144
vt 0.666667 0.000000
vt 0.652523 0.014144
vt 0.000000 0.333333
vt 0.000000 0.000000
vt 0.014144 0.014144
vt 0.014144 0.319190
vt 0.333333 0.000000
vt 0.319190 0.014144
vt 0.333333 0.333333
vt 0.319190 0.319190
vt 1.000000 0.333333
vt 0.666667 0.333333
vt 0.680810 0.319190
vt 0.985856 0.319190
vt 0.666667 0.000000
vt 0.680810 0.014144
vt 1.000000 0.000000
vt 0.985856 0.014144
vt 0.652523 0.347477
vt 0.347477 0.347477
vt 0.666667 0.666667
vt 0.652523 0.652523
vt 0.347477 0.652523
vn 0.0000 -1.0000 0.0000
vn 0.0000 1.0000 0.0000
vn 1.0000 -0.0000 0.0000
vn 0.0000 -0.0000 1.0000
vn -1.0000 -0.0000 0.0000
vn 0.0000 0.0000 -1.0000
usemtl Material.001
s off
f 1/1/1 2/2/1 10/3/1 9/4/1
f 2/2/1 3/5/1 11/6/1 10/3/1
f 3/5/1 4/7/1 12/8/1 11/6/1
f 4/7/1 1/1/1 9/4/1 12/8/1
f 5/9/2 8/10/2 14/11/2 13/12/2
f 8/10/2 7/13/2 15/14/2 14/11/2
f 7/13/2 6/15/2 16/16/2 15/14/2
f 6/15/2 5/9/2 13/12/2 16/16/2
f 1/17/3 5/9/3 18/18/3 17/19/3
f 5/9/3 6/20/3 19/21/3 18/18/3
f 6/20/3 2/22/3 20/23/3 19/21/3
f 2/22/3 1/17/3 17/19/3 20/23/3
f 2/24/4 6/25/4 22/26/4 21/27/4
f 6/25/4 7/28/4 23/29/4 22/26/4
f 7/28/4 3/30/4 24/31/4 23/29/4
f 3/30/4 2/24/4 21/27/4 24/31/4
f 3/32/5 7/33/5 26/34/5 25/35/5
f 7/33/5 8/36/5 27/37/5 26/34/5
f 8/36/5 4/38/5 28/39/5 27/37/5
f 4/38/5 3/32/5 25/35/5 28/39/5
f 5/9/6 1/17/6 30/40/6 29/41/6
f 1/17/6 4/42/6 31/43/6 30/40/6
f 4/42/6 8/10/6 32/44/6 31/43/6
f 8/10/6 5/9/6 29/41/6 32/44/6
usemtl Material
f 9/4/1 10/3/1 11/6/1 12/8/1
f 13/12/2 14/11/2 15/14/2 16/16/2
f 17/19/3 18/18/3 19/21/3 20/23/3
f 21/27/4 22/26/4 23/29/4 24/31/4
f 25/35/5 26/34/5 27/37/5 28/39/5
f 29/41/6 30/40/6 31/43/6 32/44/6
